<?xml version="1.0" standalone="no"?>
<!DOCTYPE svg PUBLIC "-//W3C//DTD SVG 20010904//EN"
 "http://www.w3.org/TR/2001/REC-SVG-20010904/DTD/svg10.dtd">
<svg version="1.0" xmlns="http://www.w3.org/2000/svg"
 width="1835.000000pt" height="1835.000000pt" viewBox="0 0 1835.000000 1835.000000"
 preserveAspectRatio="xMidYMid meet">
<metadata>
Created by potrace 1.14, written by Peter Selinger 2001-2017
</metadata>
<g transform="translate(0.000000,1835.000000) scale(0.100000,-0.100000)"
fill="#000000" stroke="none">
<path d="M7625 17220 c-129 -30 -303 -75 -360 -93 -5 -2 -30 -9 -55 -16 -90
-25 -367 -120 -427 -147 -17 -8 -36 -14 -42 -14 -6 0 -19 -4 -29 -9 -9 -6 -98
-45 -197 -87 -526 -225 -1040 -537 -1540 -934 -66 -52 -122 -97 -125 -100 -3
-3 -21 -18 -40 -34 -197 -161 -581 -536 -800 -782 -278 -311 -581 -708 -621
-811 -58 -153 -18 -342 98 -457 60 -60 168 -112 248 -121 33 -3 74 -8 90 -10
45 -6 146 -17 185 -20 34 -3 120 -13 170 -20 14 -2 56 -6 93 -10 37 -3 76 -8
85 -10 9 -1 55 -6 102 -10 47 -4 87 -8 90 -10 3 -2 40 -6 83 -10 43 -3 86 -8
95 -10 9 -1 51 -6 92 -10 41 -3 82 -8 90 -10 8 -2 49 -7 90 -10 41 -4 82 -8
90 -10 8 -1 47 -6 85 -9 39 -4 81 -9 95 -11 14 -2 52 -7 85 -10 53 -5 153 -16
283 -30 23 -3 61 -7 85 -10 54 -6 217 -23 282 -30 79 -8 148 -16 175 -20 14
-2 54 -7 90 -10 36 -3 76 -8 90 -10 14 -2 52 -6 85 -10 33 -3 76 -8 95 -10 19
-2 62 -7 95 -10 33 -3 71 -8 85 -10 14 -2 54 -6 90 -9 36 -4 75 -8 85 -10 11
-2 56 -7 99 -11 43 -4 86 -8 95 -10 9 -2 48 -6 85 -10 37 -3 80 -8 95 -10 14
-1 55 -6 91 -10 36 -3 76 -8 90 -10 32 -5 137 -16 275 -30 39 -3 82 -9 97 -11
15 -2 49 -6 75 -9 27 -2 75 -7 108 -11 33 -4 71 -8 85 -9 72 -7 158 -17 180
-20 14 -2 54 -7 90 -10 36 -3 76 -8 90 -10 14 -2 54 -7 90 -10 36 -4 76 -8 90
-10 14 -2 54 -6 90 -10 36 -3 76 -7 90 -10 14 -2 52 -7 85 -10 69 -6 135 -14
185 -20 19 -3 76 -7 125 -11 89 -6 90 -6 132 25 23 17 52 50 64 72 24 48 23
79 -12 324 -11 77 -22 158 -24 180 -2 22 -6 51 -9 65 -3 14 -8 48 -11 75 -3
28 -8 57 -10 65 -2 8 -6 38 -10 65 -5 43 -27 185 -40 265 -2 14 -7 43 -10 65
-3 22 -10 63 -15 90 -5 28 -12 64 -15 80 -27 159 -37 210 -41 217 -12 19 26 5
76 -28 147 -98 265 -277 290 -442 5 -32 12 -75 15 -97 4 -22 8 -53 10 -70 1
-16 6 -50 9 -75 4 -25 9 -63 12 -85 2 -22 7 -51 9 -65 2 -14 7 -50 10 -80 3
-30 8 -66 10 -80 2 -14 7 -45 10 -70 4 -25 8 -56 10 -70 2 -14 6 -47 10 -75 3
-27 8 -61 10 -75 2 -14 6 -47 10 -75 3 -27 8 -61 10 -75 24 -157 26 -232 7
-295 -30 -105 -90 -159 -311 -277 -42 -22 -94 -51 -116 -63 -22 -12 -70 -39
-107 -59 -81 -43 -127 -68 -413 -223 -121 -66 -260 -141 -310 -168 -49 -26
-103 -56 -120 -65 -16 -10 -59 -33 -95 -52 -36 -20 -92 -50 -125 -68 -33 -18
-94 -51 -135 -73 -41 -22 -79 -43 -85 -47 -5 -4 -55 -31 -110 -60 -55 -29
-113 -60 -130 -70 -153 -89 -200 -108 -285 -114 -47 -4 -101 -9 -120 -11 -19
-2 -69 -6 -110 -9 -134 -10 -204 -16 -235 -20 -16 -3 -70 -8 -120 -11 -144
-11 -197 -43 -221 -134 -17 -67 -3 -115 46 -163 43 -40 90 -53 167 -44 26 3
84 8 128 11 44 3 98 8 120 10 35 4 124 12 208 19 39 3 40 4 -278 -209 -154
-103 -289 -194 -299 -204 -28 -24 -53 -87 -51 -129 3 -51 17 -82 55 -119 36
-35 96 -50 151 -39 25 5 260 156 559 361 41 28 80 54 87 58 7 5 -71 -156 -172
-357 -201 -397 -205 -408 -165 -486 49 -97 185 -122 260 -47 21 20 106 176
235 431 182 359 206 401 236 416 35 18 142 76 214 116 22 12 65 36 95 52 48
25 272 147 470 254 36 20 97 53 135 74 275 149 481 261 560 304 28 15 77 42
110 59 33 18 78 42 100 54 22 13 81 45 130 71 50 27 113 61 140 76 136 75 251
137 260 141 71 29 325 182 369 223 146 136 198 332 152 572 -2 11 -7 47 -11
79 -4 33 -8 71 -10 85 -2 14 -6 43 -9 65 -3 22 -10 78 -17 125 -6 47 -13 99
-15 115 -13 109 -16 133 -19 155 -4 24 -21 156 -30 230 -2 19 -12 89 -20 155
-9 66 -18 138 -20 160 -6 49 -13 107 -21 159 -6 36 -5 38 17 31 38 -11 96 -54
131 -97 94 -116 146 -271 173 -518 3 -30 8 -62 10 -70 2 -8 6 -40 10 -71 3
-31 7 -65 9 -75 2 -11 7 -46 10 -79 4 -33 9 -67 11 -75 2 -8 6 -40 10 -71 3
-31 7 -65 9 -75 2 -11 7 -46 10 -79 14 -116 38 -211 68 -268 44 -81 130 -157
236 -208 620 -294 918 -474 1302 -788 58 -47 112 -93 121 -101 52 -51 178
-160 183 -160 4 0 5 26 2 58 -3 31 -8 109 -11 172 -3 63 -8 140 -10 170 -3 30
-7 102 -10 160 -3 58 -7 143 -10 190 -3 47 -8 123 -10 170 -6 109 -15 248 -20
325 -3 33 -7 110 -9 170 -3 61 -8 136 -11 168 -3 31 -3 57 0 57 4 0 30 -24 59
-52 67 -69 142 -214 160 -314 14 -76 21 -147 31 -304 3 -52 7 -124 10 -160 6
-83 15 -217 20 -300 3 -36 7 -99 10 -140 15 -216 17 -265 18 -375 0 -66 -3
-133 -7 -150 -13 -60 -71 -157 -124 -211 -62 -63 -94 -79 -482 -249 -96 -42
-197 -87 -225 -100 -27 -12 -201 -88 -385 -169 -184 -81 -363 -161 -398 -177
-35 -16 -65 -29 -67 -29 -3 0 -39 -16 -81 -35 -41 -19 -77 -35 -79 -35 -2 0
-36 -15 -77 -34 -157 -72 -561 -248 -576 -251 -10 -1 -64 -6 -122 -9 -126 -8
-211 -14 -305 -21 -38 -3 -106 -8 -150 -11 -94 -7 -136 -24 -173 -72 -23 -30
-27 -45 -27 -101 0 -78 24 -119 87 -150 41 -20 68 -20 263 -7 44 4 112 8 150
11 39 3 101 7 140 10 38 4 67 4 65 2 -3 -3 -52 -31 -110 -64 -515 -294 -520
-297 -541 -361 -14 -42 -5 -113 17 -147 26 -40 94 -75 145 -75 34 0 63 11 129
48 124 70 133 76 153 91 9 8 17 10 17 6 0 -4 8 -1 18 7 9 8 42 29 72 45 30 17
95 54 145 83 140 81 128 77 110 33 -9 -21 -34 -83 -56 -138 -22 -55 -46 -113
-53 -130 -67 -148 -176 -441 -176 -470 0 -85 76 -163 160 -166 88 -4 140 38
185 149 12 31 49 120 80 197 32 77 65 160 75 185 27 73 121 301 142 348 15 35
28 47 66 64 26 11 72 32 102 45 30 14 89 40 130 58 41 18 95 41 120 53 47 21
393 174 445 197 65 28 107 46 285 125 102 45 209 92 238 106 29 13 54 24 56
24 2 0 43 18 92 41 48 22 98 45 111 50 134 51 884 393 935 426 171 112 287
322 291 526 1 65 -7 282 -18 457 -2 36 -6 128 -10 205 -3 77 -8 169 -9 205 -2
36 -7 143 -11 239 -4 95 -8 186 -9 202 -1 16 1 29 5 29 17 0 123 -148 154
-215 84 -178 101 -277 110 -640 13 -511 14 -604 6 -645 -5 -25 -11 -58 -14
-75 -21 -129 -116 -293 -214 -371 -26 -21 -52 -41 -56 -44 -4 -4 13 -48 38
-99 61 -123 152 -338 205 -481 23 -63 45 -124 50 -135 21 -48 83 -251 125
-404 25 -91 50 -179 55 -196 5 -16 11 -41 14 -55 2 -14 18 -93 35 -176 47
-233 82 -462 96 -639 4 -38 8 -83 11 -100 24 -163 24 -800 0 -1075 -8 -85 -17
-172 -21 -205 -3 -16 -7 -52 -10 -80 -3 -27 -7 -57 -10 -65 -2 -8 -7 -42 -10
-75 -4 -33 -11 -82 -16 -110 -6 -27 -12 -64 -14 -81 -6 -41 -72 -357 -86 -409
-6 -22 -13 -47 -14 -55 -2 -8 -10 -40 -19 -70 -8 -30 -26 -95 -40 -145 -31
-115 -127 -404 -164 -498 -16 -40 -42 -106 -57 -147 -37 -99 -110 -254 -146
-308 -16 -24 -29 -45 -29 -48 0 -3 -4 -10 -10 -17 -5 -7 -35 -50 -66 -97 -32
-47 -67 -97 -78 -112 -12 -15 -37 -48 -56 -75 -41 -55 -40 -55 -155 -193 -213
-257 -507 -553 -785 -790 -306 -261 -710 -548 -1030 -733 -519 -299 -1064
-532 -1592 -681 -32 -9 -82 -23 -110 -31 -177 -50 -565 -130 -778 -160 -14 -2
-43 -6 -65 -9 -22 -3 -60 -8 -85 -11 -25 -3 -61 -7 -80 -10 -19 -2 -66 -7
-105 -10 -38 -3 -88 -8 -110 -10 -174 -19 -784 -26 -1005 -11 -170 11 -203 14
-372 31 -92 10 -276 33 -318 40 -14 3 -45 8 -70 11 -25 3 -54 8 -65 10 -11 3
-36 7 -55 10 -31 5 -195 36 -260 49 -14 3 -45 10 -70 15 -48 9 -147 32 -245
57 -33 8 -87 21 -120 29 -107 27 -367 105 -515 156 -396 137 -740 294 -1151
526 -122 69 -371 233 -529 350 -97 72 -299 232 -336 267 -6 5 -44 39 -85 75
-97 86 -355 344 -447 447 -247 276 -491 608 -686 931 -47 79 -86 145 -86 148
0 2 -11 22 -25 44 -78 123 -282 558 -382 815 -54 137 -187 528 -197 576 -2 13
-15 62 -29 109 -46 161 -120 501 -133 617 -4 29 -11 53 -16 53 -4 0 -6 -12 -4
-27 3 -16 7 -71 11 -123 4 -52 8 -106 10 -120 2 -14 7 -52 10 -85 3 -33 8 -73
10 -90 2 -16 6 -52 10 -80 15 -129 52 -355 76 -463 5 -23 12 -59 15 -80 6 -40
108 -447 124 -497 6 -16 28 -88 51 -160 22 -71 44 -139 49 -150 4 -11 16 -42
25 -70 23 -64 83 -221 100 -260 7 -16 32 -75 55 -130 162 -384 436 -856 719
-1235 74 -100 263 -335 280 -350 3 -3 44 -48 91 -100 208 -233 480 -489 774
-727 83 -68 325 -242 431 -311 72 -47 141 -92 155 -102 14 -9 75 -45 135 -80
348 -201 726 -381 1070 -509 77 -29 149 -57 160 -61 50 -23 399 -133 575 -183
204 -58 486 -130 555 -142 11 -2 97 -19 190 -39 182 -38 183 -38 320 -61 127
-22 224 -38 315 -50 25 -3 56 -8 70 -10 38 -6 178 -23 240 -30 30 -3 71 -8 90
-10 19 -2 64 -7 100 -10 36 -3 85 -7 110 -10 391 -38 1104 -48 1495 -21 22 2
89 6 148 10 60 4 121 9 135 11 15 2 63 6 107 10 44 4 89 9 100 11 11 2 47 6
80 9 33 3 71 7 85 10 14 2 45 7 70 10 118 16 333 51 435 71 11 2 31 6 45 9 43
8 74 14 100 20 14 3 36 8 50 11 14 3 36 7 50 10 14 3 63 14 110 25 47 11 88
20 92 20 4 0 26 6 48 14 22 8 41 14 43 14 14 -3 334 91 497 145 241 80 546
201 735 291 422 201 740 388 1075 634 84 61 356 278 410 327 19 17 78 68 130
114 112 99 516 501 615 614 39 43 75 84 80 90 6 6 33 38 60 71 28 33 53 62 56
65 11 10 167 207 210 265 24 33 47 62 50 65 3 3 50 68 105 145 523 734 924
1572 1166 2430 77 277 167 683 203 920 9 61 18 121 21 135 6 38 22 168 29 230
3 30 8 71 10 90 2 19 7 71 10 115 4 44 8 98 10 120 18 235 24 676 11 930 -10
196 -24 410 -31 444 -1 9 -6 50 -10 91 -4 41 -9 83 -11 94 -2 10 -6 44 -9 75
-4 31 -8 63 -10 71 -2 8 -7 38 -10 65 -3 28 -10 70 -15 95 -5 25 -12 63 -16
85 -4 22 -8 47 -10 55 -1 8 -6 35 -10 60 -11 66 -17 98 -54 255 -10 44 -21 91
-24 105 -3 14 -18 77 -35 140 -17 63 -33 126 -37 140 -65 256 -246 760 -394
1095 -79 179 -247 509 -350 690 -631 1104 -1523 2055 -2560 2727 -74 48 -140
91 -146 95 -5 4 -21 15 -35 22 -495 293 -869 477 -1322 650 -221 84 -528 188
-627 211 -19 4 -82 21 -140 38 -177 50 -485 120 -695 157 -63 11 -292 46 -335
51 -25 3 -56 7 -69 9 -14 2 -52 7 -85 10 -34 3 -77 8 -96 10 -95 11 -199 19
-400 31 -125 7 -635 12 -668 6 -20 -4 -23 -10 -20 -34 6 -41 -6 -23 -32 47
-24 66 -29 77 -110 251 -60 126 -162 305 -208 363 -80 101 -180 172 -302 215
-73 26 -101 30 -200 32 -102 2 -132 -2 -275 -36z m-522 -921 c47 -25 183 -182
275 -320 64 -95 169 -297 215 -414 36 -90 102 -301 112 -353 3 -15 7 -38 10
-52 38 -171 51 -310 32 -343 -40 -71 -59 -76 -397 -102 -41 -3 -91 -7 -110
-10 -19 -2 -63 -7 -97 -10 -35 -3 -91 -7 -125 -10 -35 -3 -79 -8 -98 -10 -19
-2 -71 -7 -115 -10 -44 -4 -91 -8 -105 -10 -14 -2 -59 -7 -100 -10 -119 -9
-254 -21 -330 -30 -19 -2 -66 -7 -105 -10 -38 -3 -86 -8 -105 -10 -19 -2 -66
-7 -104 -10 -38 -3 -80 -7 -95 -9 -14 -3 -57 -7 -96 -11 -38 -3 -89 -8 -112
-10 -24 -3 -62 -7 -85 -10 -24 -2 -74 -7 -113 -11 -38 -3 -79 -8 -89 -10 -79
-15 -184 -15 -218 -1 -75 32 -98 118 -54 205 38 75 198 310 251 368 5 6 30 36
54 65 85 103 357 365 491 472 173 139 393 292 540 377 19 11 42 25 50 30 72
46 383 209 478 250 65 28 104 30 145 9z"/>
<path d="M1372 7155 c0 -16 2 -22 5 -12 2 9 2 23 0 30 -3 6 -5 -1 -5 -18z"/>
</g>
</svg>
